<?xml version="1.0" encoding="utf-8"?>
<!-- Generator: Adobe Illustrator 19.0.1, SVG Export Plug-In . SVG Version: 6.00 Build 0)  -->
<svg version="1.1" xmlns="http://www.w3.org/2000/svg" xmlns:xlink="http://www.w3.org/1999/xlink" x="0px" y="0px"
	 viewBox="0 0 1178 137.3" enable-background="new 0 0 1178 137.3" xml:space="preserve">
<g id="POST">
</g>
<g id="Layer_1_xA0_Image_1_">
</g>
<g id="FA_xA0_Image_1_">
</g>
<g id="ATIC_x0D_">
	<g>
		<g>
			<path d="M818.9,72.7c-1.5,6.5-4.6,11.8-9.4,15.7c-4.8,3.9-10.4,5.9-16.8,5.9l-53-0.2l-9.2,43.2h-46l29.2-138h99.2
				c6.5,0,11.4,2,14.5,5.9c3.1,3.9,4,9.2,2.5,15.7L818.9,72.7z M756.1,16.5l-12.8,60.4h28.8l12.8-60.4H756.1z"/>
			<path d="M930,118.9c-1.2,5.6-3.9,10-8,13.3c-4.1,3.3-8.8,5-14.3,5h-66c-5.6,0-9.7-1.7-12.3-5c-2.7-3.3-3.4-7.8-2.1-13.3l17-80.6
				c1.2-5.6,3.9-10,8-13.3c4.1-3.3,8.8-5,14.3-5h66c5.6,0,9.7,1.7,12.3,5c2.7,3.3,3.4,7.8,2.1,13.3L930,118.9z M884.2,34.6
				l-18.7,88.1H890l18.7-88.1H884.2z"/>
			<path d="M1038.9,71.3c5.6,0,9.7,1.7,12.3,5c2.7,3.3,3.4,7.8,2.1,13.3l-6.1,29.2c-1.2,5.6-3.9,10-8,13.3c-4.1,3.3-8.8,5-14.3,5
				h-66c-5.6,0-9.6-1.7-12.2-5c-2.6-3.3-3.3-7.8-2.2-13.3l3.2-15.8h39.1l-4.1,19.5h24.5l7.8-36.7h-45.2c-5.6,0-9.7-1.7-12.3-5
				c-2.7-3.3-3.4-7.8-2.1-13.3l6.1-29.2c1.2-5.6,3.9-10,8-13.3c4.1-3.3,8.8-5,14.3-5h66c5.6,0,9.7,1.7,12.3,5
				c2.7,3.3,3.4,7.7,2.1,13.2L1061,54h-39.1l4.1-19.4h-24.5l-7.8,36.7H1038.9z"/>
			<path d="M1174.9,34.6h-29.2l-21.8,102.7h-39.1l21.8-102.7h-29.2l3.1-14.6h97.6L1174.9,34.6z"/>
		</g>
		<g>
			<path fill="#1A0692" d="M292.6,21.2c-1.3,10.9-4.2,21.5-6.4,32.2c-2.6,13-5.4,25.9-8.7,38.9c-3.5-22.6-7-45.2-10.6-68.1
				c-12.2,0-24.1,0-36.1,0c-1.5,0-3,0.2-4.3-0.8c-0.7-2.6,1-2.3,2.6-2.3C250.4,21.2,271.5,21.2,292.6,21.2z"/>
			<path fill="#920606" d="M241.9,138.2c5.1-23.9,10-47.2,15-70.6c0.3,0,0.5,0,0.8-0.1c3.4,22.5,6.8,44.9,10.2,67.6
				c13.4,0,26.8,0,39.9,0c1.2,2.3,0.6,3.1-1.7,3.1C284.9,138.2,263.7,138.2,241.9,138.2z"/>
		</g>
		<g>
			<path fill="#020202" d="M225.8,38.4c-3,8.3-4.1,17.1-5.9,25.7c-5.2,23.9-10.1,47.8-15.1,71.7c-0.3,1.4-0.6,2.5-2.5,2.5
				c-12.4-0.1-24.7,0-37.4,0c2.6-12.4,5.2-24.4,7.8-36.6c-8.1,0-15.9,0-24.2,0c-2.6,12-5.2,24.1-7.8,36.4c-13,0-26,0-39.3,0
				c2.7-12.9,5.5-25.8,8.2-38.7c4.1-19.5,8.2-39,12.4-58.5c2.8-13,9.8-19.5,23-19.8c21.9-0.5,43.7-0.1,65.6-0.1
				c7.7,0,13,3.2,15.3,10.8C225.8,33.9,225.8,36.2,225.8,38.4z M151.5,86.8c7.8,0,15-0.1,22.2,0c2.2,0,2.3-1.3,2.6-2.9
				c1.6-7.8,3.4-15.6,5-23.4c1.7-8.2,3.4-16.5,5.2-24.8c-8.3,0-16.2,0-24.2,0C158.8,52.7,155.2,69.5,151.5,86.8z"/>
			<path fill="#020202" d="M126.8,0.2c-1,5.6-2.1,11.2-3.1,17.2c-7.7,0-15.3,0-22.9,0c-8.7,0-17.5,0-26.2,0c-1.3,0-2.8-0.5-3.2,1.6
				c-2.8,13.7-5.8,27.3-8.8,41.5c13.5,0,26.6,0,40.1,0c-1.3,6.1-2.4,11.7-3.6,17.3c-12.4,0-24.5,0.1-36.6-0.1
				c-2.7,0-3.8,0.7-4.3,3.5c-3.8,18.9-7.9,37.8-12,57c-15.4,0-30.8,0-46.1,0c0-0.8,0-1.5,0-2.3c0.2-0.4,0.6-0.8,0.7-1.3
				C8.5,97.7,16.3,60.8,24,23.8C27.1,9,35.9,1,51,0c1.4,0.1,2.7,0.1,4.1,0.1C79,0.2,102.9,0.2,126.8,0.2z"/>
		</g>
		<g>
			<path d="M409.8,137.5h-39.1l7.8-36.7H354l-7.8,36.7h-39.1L328,38.5c1.2-5.6,3.9-10,8-13.3c4.1-3.3,8.8-5,14.3-5h66
				c5.6,0,9.7,1.7,12.3,5c2.7,3.3,3.4,7.8,2.1,13.3L409.8,137.5z M368,34.8l-10.9,51.3h24.5l10.9-51.3H368z"/>
			<path d="M541.4,34.8h-29.2l-21.8,102.7h-39.1L473,34.8h-29.2l3.1-14.6h97.6L541.4,34.8z"/>
			<path d="M570.8,137.5h-39.1l24.8-117.3h39.1L570.8,137.5z"/>
			<path d="M603.8,137.5c-5.6,0-9.7-1.7-12.3-5c-2.7-3.3-3.4-7.8-2.1-13.3l17-80.6c1.2-5.6,3.9-10,8-13.3c4.1-3.3,8.8-5,14.3-5h64.8
				l-3.1,14.6h-44l-19.7,88.1h45l-3.1,14.6H603.8z"/>
		</g>
	</g>
</g>
</svg>
